<svg width="100" height="100" viewBox="0 0 100 100" xmlns="http://www.w3.org/2000/svg">
  <defs>
    <pattern id="kuriftuPattern" patternUnits="userSpaceOnUse" width="100" height="100">
      <rect width="100" height="100" fill="none"/>
      <path d="M0,0 L20,20 M40,0 L60,20 M80,0 L100,20 M0,40 L20,60 M40,40 L60,60 M80,40 L100,60 M0,80 L20,100 M40,80 L60,100 M80,80 L100,100" stroke="white" stroke-width="0.5" stroke-opacity="0.1"/>
      <path d="M20,0 L0,20 M60,0 L40,20 M100,0 L80,20 M20,40 L0,60 M60,40 L40,60 M100,40 L80,60 M20,80 L0,100 M60,80 L40,100 M100,80 L80,100" stroke="white" stroke-width="0.5" stroke-opacity="0.1"/>
      <circle cx="50" cy="50" r="10" stroke="white" stroke-width="0.5" fill="none" stroke-opacity="0.1"/>
      <circle cx="50" cy="50" r="20" stroke="white" stroke-width="0.5" fill="none" stroke-opacity="0.1"/>
    </pattern>
  </defs>
  <rect width="100" height="100" fill="url(#kuriftuPattern)"/>
</svg>
